<?xml version="1.0" standalone="no"?>
<!DOCTYPE svg PUBLIC "-//W3C//DTD SVG 20010904//EN"
 "http://www.w3.org/TR/2001/REC-SVG-20010904/DTD/svg10.dtd">
<svg version="1.0" xmlns="http://www.w3.org/2000/svg"
 width="512.000000pt" height="512.000000pt" viewBox="0 0 512.000000 512.000000"
 preserveAspectRatio="xMidYMid meet">

<g transform="translate(0.000000,512.000000) scale(0.100000,-0.100000)"
fill="#000000" stroke="none">
<path d="M392 5099 c-28 -14 -49 -34 -62 -60 -20 -38 -20 -76 -20 -2389 l0
-2350 -95 0 c-76 0 -104 -4 -135 -20 -45 -23 -80 -80 -80 -130 0 -50 35 -107
80 -130 39 -20 53 -20 2480 -20 2427 0 2441 0 2480 20 45 23 80 80 80 130 0
50 -35 107 -80 130 -31 16 -59 20 -135 20 l-95 0 0 1285 c0 1394 3 1322 -54
1375 -21 19 -240 96 -884 311 l-857 286 -5 280 c-5 278 -5 280 -30 316 -15 22
-43 44 -70 56 -133 57 -2408 904 -2439 908 -24 3 -50 -3 -79 -18z m1281 -744
l1037 -389 0 -1833 0 -1833 -150 0 -150 0 0 390 c0 372 -1 393 -20 430 -13 26
-34 47 -60 60 -38 19 -58 20 -670 20 -612 0 -632 -1 -670 -20 -26 -13 -47 -34
-60 -60 -19 -37 -20 -58 -20 -430 l0 -390 -150 0 -150 0 0 2226 c0 1777 3
2225 13 2222 6 -3 479 -179 1050 -393z m2102 -1368 l730 -244 3 -1221 2 -1222
-150 0 -150 0 0 390 c0 372 -1 393 -20 430 -13 26 -34 47 -60 60 -37 19 -58
20 -370 20 -312 0 -333 -1 -370 -20 -26 -13 -47 -34 -60 -60 -19 -37 -20 -58
-20 -430 l0 -390 -150 0 -150 0 0 1471 c0 1396 1 1470 18 1465 9 -3 346 -115
747 -249z m-2265 -2387 l0 -300 -150 0 -150 0 0 300 0 300 150 0 150 0 0 -300z
m600 0 l0 -300 -150 0 -150 0 0 300 0 300 150 0 150 0 0 -300z m1800 0 l0
-300 -150 0 -150 0 0 300 0 300 150 0 150 0 0 -300z"/>
<path d="M988 3579 c-43 -22 -78 -81 -78 -129 0 -50 35 -107 80 -130 35 -18
59 -20 220 -20 161 0 185 2 220 20 45 23 80 80 80 130 0 50 -35 107 -80 130
-35 18 -58 20 -222 20 -162 -1 -187 -3 -220 -21z"/>
<path d="M1888 3579 c-43 -22 -78 -81 -78 -129 0 -50 35 -107 80 -130 35 -18
59 -20 220 -20 161 0 185 2 220 20 45 23 80 80 80 130 0 50 -35 107 -80 130
-35 18 -58 20 -222 20 -162 -1 -187 -3 -220 -21z"/>
<path d="M988 2979 c-43 -22 -78 -81 -78 -129 0 -50 35 -107 80 -130 35 -18
59 -20 220 -20 161 0 185 2 220 20 45 23 80 80 80 130 0 50 -35 107 -80 130
-35 18 -58 20 -222 20 -162 -1 -187 -3 -220 -21z"/>
<path d="M1888 2979 c-43 -22 -78 -81 -78 -129 0 -50 35 -107 80 -130 35 -18
59 -20 220 -20 161 0 185 2 220 20 45 23 80 80 80 130 0 50 -35 107 -80 130
-35 18 -58 20 -222 20 -162 -1 -187 -3 -220 -21z"/>
<path d="M988 2379 c-43 -22 -78 -81 -78 -129 0 -50 35 -107 80 -130 35 -18
59 -20 220 -20 161 0 185 2 220 20 45 23 80 80 80 130 0 50 -35 107 -80 130
-35 18 -58 20 -222 20 -162 -1 -187 -3 -220 -21z"/>
<path d="M1888 2379 c-43 -22 -78 -81 -78 -129 0 -50 35 -107 80 -130 35 -18
59 -20 220 -20 161 0 185 2 220 20 45 23 80 80 80 130 0 50 -35 107 -80 130
-35 18 -58 20 -222 20 -162 -1 -187 -3 -220 -21z"/>
<path d="M988 1779 c-43 -22 -78 -81 -78 -129 0 -50 35 -107 80 -130 35 -18
59 -20 220 -20 161 0 185 2 220 20 45 23 80 80 80 130 0 50 -35 107 -80 130
-35 18 -58 20 -222 20 -162 -1 -187 -3 -220 -21z"/>
<path d="M1888 1779 c-43 -22 -78 -81 -78 -129 0 -50 35 -107 80 -130 35 -18
59 -20 220 -20 161 0 185 2 220 20 45 23 80 80 80 130 0 50 -35 107 -80 130
-35 18 -58 20 -222 20 -162 -1 -187 -3 -220 -21z"/>
<path d="M3388 2379 c-43 -22 -78 -81 -78 -129 0 -50 35 -107 80 -130 37 -19
58 -20 370 -20 312 0 333 1 370 20 45 23 80 80 80 130 0 50 -35 107 -80 130
-37 19 -58 20 -372 20 -312 -1 -335 -2 -370 -21z"/>
<path d="M3388 1779 c-43 -22 -78 -81 -78 -129 0 -50 35 -107 80 -130 37 -19
58 -20 370 -20 312 0 333 1 370 20 45 23 80 80 80 130 0 50 -35 107 -80 130
-37 19 -58 20 -372 20 -312 -1 -335 -2 -370 -21z"/>
</g>
</svg>
