<?xml version="1.0" standalone="no"?>
<!DOCTYPE svg PUBLIC "-//W3C//DTD SVG 20010904//EN"
 "http://www.w3.org/TR/2001/REC-SVG-20010904/DTD/svg10.dtd">
<svg version="1.0" xmlns="http://www.w3.org/2000/svg"
 width="500.000000pt" height="500.000000pt" viewBox="0 0 500.000000 500.000000"
 preserveAspectRatio="xMidYMid meet">

<g transform="translate(0.000000,500.000000) scale(0.100000,-0.100000)"
fill="#000000" stroke="none">
<path d="M1863 4280 c-186 -26 -360 -113 -486 -244 -69 -71 -120 -158 -161
-275 -29 -83 -30 -93 -31 -271 0 -155 -4 -193 -19 -232 -17 -43 -17 -57 -8
-134 18 -134 73 -209 179 -245 43 -14 49 -20 60 -58 6 -23 28 -75 47 -116 35
-70 36 -78 36 -183 l0 -109 -74 -45 c-40 -25 -127 -63 -192 -86 -66 -22 -184
-64 -264 -92 -80 -28 -179 -63 -220 -77 -161 -54 -187 -84 -206 -236 -6 -56
-17 -151 -23 -212 -7 -60 -18 -166 -26 -235 -8 -69 -19 -172 -25 -230 -6 -58
-15 -147 -22 -198 -16 -141 4 -194 101 -258 l45 -29 1565 0 1566 0 84 23 c315
87 548 272 683 544 52 105 69 161 93 298 26 150 12 329 -36 473 -24 71 -109
247 -119 247 -4 0 -11 10 -17 23 -16 34 -158 182 -222 231 -452 345 -1125 242
-1448 -221 -20 -29 -41 -53 -46 -53 -24 0 -147 51 -200 83 -91 56 -87 47 -87
162 0 94 2 106 30 156 16 30 39 83 51 119 20 62 24 67 62 79 122 38 187 140
187 296 0 61 -4 78 -26 110 -24 36 -25 41 -15 109 20 142 21 192 7 281 -18
115 -46 190 -100 263 -53 71 -99 108 -202 163 -43 23 -99 61 -124 85 -66 63
-140 92 -247 98 -48 3 -116 1 -150 -4z m243 -174 c14 -10 44 -35 66 -56 23
-21 79 -58 126 -81 166 -85 236 -204 237 -399 0 -52 -4 -113 -9 -135 l-8 -40
-17 70 c-22 89 -43 128 -93 176 -81 77 -184 88 -328 34 -106 -39 -187 -39
-299 3 -144 54 -247 39 -325 -49 -49 -53 -73 -105 -86 -182 -7 -37 -16 -64
-21 -61 -5 3 -9 54 -9 113 0 188 44 310 154 428 89 96 225 169 359 193 79 14
222 6 253 -14z m-373 -579 c21 -9 74 -23 118 -32 97 -18 179 -9 299 35 106 38
140 28 182 -54 18 -36 19 -55 16 -300 -4 -251 -5 -264 -30 -334 -57 -158 -150
-259 -278 -302 -208 -71 -422 78 -496 345 -13 46 -18 116 -21 296 -5 226 -4
238 17 287 41 94 80 106 193 59z m-373 -392 c0 -115 -30 -113 -46 3 -7 54 4
82 32 82 11 0 14 -19 14 -85z m1198 22 c2 -41 -2 -66 -13 -83 -27 -42 -35 -28
-35 62 0 83 1 85 23 82 19 -3 22 -10 25 -61z m1167 -572 c158 -31 309 -111
430 -230 123 -121 195 -244 243 -417 24 -88 24 -317 -1 -408 -42 -154 -113
-281 -219 -392 -109 -113 -225 -184 -387 -235 -78 -24 -101 -27 -236 -27 -173
0 -228 11 -370 79 -189 90 -327 229 -414 416 -65 139 -76 191 -75 374 1 147 3
167 28 240 51 149 107 244 213 356 107 114 287 213 441 243 93 19 251 19 347
1z m-1862 -215 c111 -17 225 4 323 60 l54 31 0 -29 c0 -20 -14 -44 -48 -83
-27 -30 -93 -103 -146 -164 -54 -60 -101 -111 -105 -113 -5 -1 -43 37 -87 85
-43 48 -81 90 -84 93 -3 3 -33 37 -68 76 -46 53 -62 78 -62 100 l0 30 78 -38
c46 -23 104 -42 145 -48z m-275 -152 c85 -93 208 -231 225 -253 18 -23 17 -24
-55 -103 -40 -44 -76 -81 -79 -81 -3 -1 -13 18 -24 42 -10 23 -33 74 -51 112
-68 149 -124 275 -124 284 0 11 41 40 57 40 7 1 29 -18 51 -41z m782 25 c14
-9 26 -17 28 -18 3 -2 -23 -63 -66 -155 -16 -36 -51 -112 -77 -170 -26 -58
-50 -109 -54 -113 -7 -7 -151 143 -151 157 0 13 274 316 285 316 6 0 22 -8 35
-17z m-1025 -123 c15 -26 85 -179 85 -185 0 -2 26 -59 58 -127 32 -67 64 -139
72 -158 34 -86 76 -113 129 -85 18 9 35 23 38 31 11 29 22 13 29 -43 12 -91 9
-103 -65 -368 -39 -137 -75 -263 -79 -280 l-8 -30 -491 -3 c-595 -3 -542 -17
-524 144 6 60 16 152 22 204 9 88 24 225 49 440 5 47 12 115 15 152 4 37 10
79 14 93 7 29 -3 24 276 122 72 26 177 63 235 84 58 20 111 36 118 36 7 -1 20
-13 27 -27z m1245 20 c17 -9 18 -13 5 -43 -7 -18 -24 -71 -36 -117 -32 -122
-32 -368 0 -485 40 -147 92 -258 171 -364 70 -93 103 -127 198 -203 l74 -58
-363 2 -362 3 -14 50 c-55 212 -133 548 -133 577 0 19 3 50 6 67 l7 32 23 -22
c31 -29 77 -29 109 1 14 13 25 27 25 32 0 4 18 46 40 92 21 46 46 102 55 123
58 138 150 323 162 323 8 0 23 -5 33 -10z m-621 -346 c22 -25 23 -31 16 -140
l-7 -114 -28 0 c-26 0 -29 4 -39 53 -5 28 -13 80 -17 115 -5 57 -4 66 17 88
28 30 30 30 58 -2z m25 -431 c2 -10 11 -47 20 -83 8 -36 33 -139 56 -229 22
-91 40 -168 40 -173 0 -4 -76 -8 -170 -8 -93 0 -170 3 -170 8 1 12 15 68 59
222 22 80 48 172 58 205 22 79 19 75 63 75 28 0 40 -5 44 -17z"/>
<path d="M3215 2310 c-41 -16 -49 -39 -53 -141 l-4 -99 -93 0 c-78 0 -96 -3
-119 -21 l-26 -20 0 -413 0 -413 23 -21 23 -22 586 0 c577 0 586 0 612 21 l26
20 0 414 0 414 -26 20 c-23 18 -41 21 -120 21 l-94 0 0 85 c0 46 -5 96 -12
110 -24 53 -40 55 -385 54 -175 0 -327 -4 -338 -9z m573 -197 l3 -43 -235 0
-236 0 0 45 0 45 233 -2 232 -3 3 -42z m222 -212 c0 -22 -58 -76 -105 -97 -43
-20 -66 -24 -157 -24 l-108 0 -14 34 c-27 66 -121 64 -144 -3 l-11 -31 -104 0
c-123 0 -178 16 -230 66 -68 67 -86 64 418 64 271 0 455 -4 455 -9z m-802
-267 c32 -8 105 -14 165 -14 97 0 107 -2 107 -18 0 -22 25 -47 56 -56 33 -10
75 11 87 44 l11 30 96 0 c119 0 202 15 258 45 l42 24 0 -190 0 -189 -475 0
-475 0 0 190 0 189 36 -21 c20 -12 61 -27 92 -34z"/>
</g>
</svg>
